<svg width="3524" height="468" viewBox="0 0 3524 468" fill="none" xmlns="http://www.w3.org/2000/svg">
<path d="M599 190C599 291.569 504.729 375 387 375C269.271 375 175 291.569 175 190C175 88.4307 269.271 5 387 5C504.729 5 599 88.4307 599 190Z" stroke="#E0E0E0" stroke-width="10"/>
<path d="M0 67L765 67" stroke="#E0E0E0" stroke-width="10"/>
<path d="M387 69.0001L387 468" stroke="#E0E0E0" stroke-width="10"/>
<path d="M995.439 297V147.844H912.189V130.5H1099.5V147.844H1016.25V297H995.439ZM1081.29 297L1178.42 130.5H1206.17L1303.29 297H1279.01L1258.2 258.844H1126.38L1105.57 297H1081.29ZM1136.79 241.5H1247.79L1192.29 144.375L1136.79 241.5ZM1331.04 297V130.5H1351.85V279.656H1483.67V297H1331.04ZM1511.42 297V130.5H1674.88V147.844H1532.23V203.344H1668.92V220.688H1532.23V279.656H1677.92V297H1511.42ZM1705.67 297V130.5H1727.35L1894.6 271.31H1894.82V130.5H1915.63V297H1893.95L1726.7 154.998H1726.48V297H1705.67ZM2029.99 297V147.844H1946.74V130.5H2134.06V147.844H2050.81V297H2029.99ZM2165.06 297V130.5H2322.02V147.844H2185.87V203.344H2315.84V220.688H2185.87V297H2165.06ZM2425.97 300.469C2409.71 300.469 2396.34 299.349 2385.87 297.108C2375.39 294.94 2367.19 290.894 2361.26 284.968C2355.41 279.042 2351.29 270.515 2348.9 259.386C2346.59 248.257 2345.43 233.768 2345.43 215.918V211.582C2345.43 196.84 2346.16 184.482 2347.6 174.51C2349.05 164.465 2351.54 156.299 2355.08 150.012C2358.62 143.725 2363.43 138.919 2369.5 135.595C2375.64 132.271 2383.34 130.03 2392.59 128.874C2401.84 127.646 2412.97 127.031 2425.97 127.031H2469.66C2482.67 127.031 2493.79 127.646 2503.04 128.874C2512.29 130.03 2519.96 132.271 2526.03 135.595C2532.17 138.919 2537.01 143.725 2540.55 150.012C2544.09 156.299 2546.58 164.465 2548.03 174.51C2549.48 184.482 2550.2 196.84 2550.2 211.582V215.918C2550.2 233.768 2549.01 248.257 2546.62 259.386C2544.31 270.515 2540.19 279.042 2534.26 284.968C2528.41 290.894 2520.24 294.94 2509.77 297.108C2499.29 299.349 2485.92 300.469 2469.66 300.469H2425.97ZM2425.97 282.475H2469.66C2479.99 282.475 2488.7 282.113 2495.78 281.391C2502.86 280.668 2508.61 279.114 2513.02 276.729C2517.5 274.345 2520.89 270.731 2523.21 265.89C2525.59 261.048 2527.22 254.58 2528.08 246.486C2528.95 238.393 2529.39 228.203 2529.39 215.918V211.582C2529.39 198.863 2528.95 188.385 2528.08 180.146C2527.22 171.908 2525.59 165.404 2523.21 160.635C2520.89 155.865 2517.5 152.396 2513.02 150.229C2508.61 147.988 2502.86 146.579 2495.78 146.001C2488.7 145.351 2479.99 145.025 2469.66 145.025H2425.97C2415.64 145.025 2406.93 145.351 2399.85 146.001C2392.77 146.579 2386.99 147.988 2382.51 150.229C2378.1 152.396 2374.7 155.865 2372.32 160.635C2370 165.404 2368.41 171.908 2367.55 180.146C2366.68 188.385 2366.25 198.863 2366.25 211.582V215.918C2366.25 228.203 2366.68 238.393 2367.55 246.486C2368.41 254.58 2370 261.048 2372.32 265.89C2374.7 270.731 2378.1 274.345 2382.51 276.729C2386.99 279.114 2392.77 280.668 2399.85 281.391C2406.93 282.113 2415.64 282.475 2425.97 282.475ZM2585.43 130.5H2696.86C2713.12 130.5 2726.2 131.223 2736.1 132.668C2746.07 134.113 2753.63 136.606 2758.76 140.147C2763.89 143.688 2767.36 148.53 2769.16 154.673C2770.97 160.815 2771.87 168.584 2771.87 177.979V182.314C2771.87 190.986 2770.83 198.466 2768.73 204.753C2766.71 210.968 2762.77 216.026 2756.91 219.929C2751.06 223.759 2742.39 226.469 2730.9 228.059L2767.1 297H2746.29L2710.84 229.576C2709.4 229.648 2707.88 229.685 2706.29 229.685C2704.77 229.685 2703.18 229.685 2701.52 229.685H2606.24V297H2585.43V130.5ZM2606.24 211.69H2698.27C2710.63 211.69 2720.35 211.293 2727.43 210.498C2734.58 209.631 2739.82 208.149 2743.15 206.054C2746.54 203.958 2748.71 200.995 2749.65 197.165C2750.59 193.335 2751.06 188.385 2751.06 182.314V177.979C2751.06 171.113 2750.41 165.693 2749.11 161.719C2747.81 157.744 2745.21 154.817 2741.3 152.938C2737.4 151.06 2731.58 149.867 2723.85 149.361C2716.12 148.783 2705.79 148.494 2692.85 148.494H2606.24V211.69ZM2804.39 215.918V211.582C2804.39 196.84 2805.12 184.482 2806.56 174.51C2808.01 164.465 2810.5 156.299 2814.04 150.012C2817.58 143.725 2822.39 138.919 2828.46 135.595C2834.6 132.271 2842.3 130.03 2851.55 128.874C2860.8 127.646 2871.92 127.031 2884.93 127.031H2925.69C2942.75 127.031 2956.58 127.682 2967.21 128.982C2977.9 130.283 2986.1 132.776 2991.81 136.462C2997.59 140.147 3001.57 145.531 3003.74 152.613C3005.91 159.623 3006.99 168.837 3006.99 180.255H2986.18C2986.18 171.655 2985.42 164.971 2983.9 160.201C2982.38 155.359 2979.53 151.891 2975.34 149.795C2971.15 147.627 2965.04 146.29 2957.02 145.784C2949.07 145.278 2938.63 145.025 2925.69 145.025H2884.93C2874.6 145.025 2865.89 145.351 2858.81 146.001C2851.73 146.579 2845.95 147.988 2841.46 150.229C2837.06 152.396 2833.66 155.865 2831.28 160.635C2828.96 165.404 2827.37 171.908 2826.51 180.146C2825.64 188.385 2825.21 198.863 2825.21 211.582V215.918C2825.21 228.203 2825.64 238.393 2826.51 246.486C2827.37 254.58 2828.96 261.048 2831.28 265.89C2833.66 270.731 2837.06 274.345 2841.46 276.729C2845.95 279.114 2851.73 280.668 2858.81 281.391C2865.89 282.113 2874.6 282.475 2884.93 282.475H2932.95C2944.88 282.475 2954.49 282.005 2961.79 281.065C2969.09 280.054 2974.61 277.958 2978.37 274.778C2982.2 271.526 2984.77 266.612 2986.07 260.036C2987.37 253.388 2988.02 244.427 2988.02 233.153V226.758H2908.35V209.414H3008.83V233.153C3008.83 247.245 3007.64 258.699 3005.25 267.516C3002.87 276.332 2998.82 283.161 2993.11 288.003C2987.48 292.772 2979.75 296.024 2969.92 297.759C2960.16 299.565 2947.84 300.469 2932.95 300.469H2884.93C2868.67 300.469 2855.3 299.349 2844.83 297.108C2834.35 294.94 2826.14 290.894 2820.22 284.968C2814.37 279.042 2810.25 270.515 2807.86 259.386C2805.55 248.257 2804.39 233.768 2804.39 215.918ZM3047.42 297V130.5H3210.89V147.844H3068.23V203.344H3204.92V220.688H3068.23V279.656H3213.92V297H3047.42Z" fill="#E0E0E0"/>
<line x1="256" y1="107" x2="256" y2="298" stroke="#E0E0E0" stroke-width="10"/>
<path d="M251 109.5L548 107" stroke="#E0E0E0" stroke-width="10"/>
<path d="M251 149.5L548 147.041" stroke="#E0E0E0" stroke-width="10"/>
</svg>
